<svg width="290" height="65" viewBox="0 0 290 65" fill="none" xmlns="http://www.w3.org/2000/svg">
<path d="M272.864 29.4344H269.708V7.35863H272.864L286.134 24.4773V7.35863H289.29V29.4344H286.134L272.864 12.3157V29.4344Z" fill="white"/>
<path d="M215.188 7.35863H233.886V10.5145H226.194V29.4344H223.038V10.5145L215.188 10.5476V7.35863Z" fill="white"/>
<path d="M201.595 26.2785C201.595 26.7095 201.513 27.1201 201.349 27.51C201.185 27.8898 200.959 28.2233 200.672 28.5107C200.384 28.7981 200.046 29.0238 199.656 29.1881C199.276 29.3523 198.871 29.4344 198.44 29.4344H185.831C185.4 29.4344 184.99 29.3523 184.6 29.1881C184.22 29.0238 183.887 28.7981 183.599 28.5107C183.312 28.2233 183.086 27.8898 182.922 27.51C182.758 27.1201 182.676 26.7095 182.676 26.2785V10.5145C182.676 10.0835 182.758 9.67807 182.922 9.29834C183.086 8.90835 183.312 8.5748 183.599 8.2977C183.887 8.01033 184.22 7.78455 184.6 7.62034C184.99 7.44587 185.4 7.35863 185.831 7.35863H198.44C198.871 7.35863 199.276 7.44587 199.656 7.62034C200.046 7.78455 200.384 8.01033 200.672 8.2977C200.959 8.5748 201.185 8.90835 201.349 9.29834C201.513 9.67807 201.595 10.0835 201.595 10.5145V26.2785ZM185.831 10.5145V26.2785H198.44V10.5145H185.831Z" fill="white"/>
<path d="M166.591 7.35863V29.4344H163.435V7.35863H166.591Z" fill="white"/>
<path d="M147.75 15.2406C147.75 18.3195 146.436 20.0745 143.809 20.5055L147.966 29.4344H144.471L140.376 20.6133H133.464V29.4344H130.308V7.35863H142.393C145.964 7.35863 147.75 9.14953 147.75 12.7313V15.2406ZM133.464 17.4574H142.223C143.065 17.4574 143.671 17.2727 144.04 16.9032C144.409 16.5338 144.594 15.9282 144.594 15.0867V12.8853C144.594 12.0437 144.409 11.4382 144.04 11.0687C143.671 10.6992 143.065 10.5145 142.223 10.5145H133.464V17.4574Z" fill="white"/>
<path d="M98.0721 7.35863H116.773V10.5145H108.866V29.4344H105.71V10.5145H98.0721V7.35863Z" fill="white"/>
<path d="M65.3482 7.35863H68.5041V26.2785H81.1122V7.35863H84.268V26.2785C84.268 26.7095 84.1859 27.1201 84.0217 27.51C83.8575 27.8898 83.6317 28.2233 83.3444 28.5107C83.057 28.7981 82.7183 29.0238 82.3283 29.1881C81.9486 29.3523 81.5432 29.4344 81.1122 29.4344H68.5041C68.073 29.4344 67.6625 29.3523 67.2725 29.1881C66.8928 29.0238 66.5592 28.7981 66.2719 28.5107C65.9845 28.2233 65.7587 27.8898 65.5945 27.51C65.4303 27.1201 65.3482 26.7095 65.3482 26.2785V7.35863Z" fill="white"/>
<path d="M22.8628 29.4343H19.5786L19.5787 0H22.8628L41.2541 24.1497V0H44.5382V29.4343H41.2541L22.8628 5.25466V29.4343Z" fill="white"/>
<path d="M219.567 35.114H278.68L260.551 45.4359L268.433 64.0141L250.304 52.3166L231.388 64.0141L238.481 45.4359L227.65 39.2259L0 35.7236L219.563 35.1122L219.567 35.114Z" fill="url(#paint0_linear_2149_428)" fill-opacity="0.9"/>
<path d="M257.546 30.5163H242.207L249.825 8.06055L257.546 30.5163Z" fill="url(#paint1_linear_2149_428)" fill-opacity="0.9"/>
<path d="M212.27 56.9668C211.821 56.9668 211.337 56.8825 210.819 56.7138C210.31 56.5352 209.87 56.2425 209.499 55.8357L209.939 54.0795C210.213 54.5459 210.564 54.9179 210.995 55.1958C211.425 55.4637 211.884 55.5976 212.373 55.5976C212.842 55.5976 213.194 55.4835 213.429 55.2553C213.663 55.0172 213.781 54.7294 213.781 54.3921C213.781 54.0051 213.654 53.7224 213.399 53.5438C213.155 53.3652 212.935 53.2411 212.74 53.1717L211.552 52.7103C211.337 52.621 211.078 52.492 210.775 52.3234C210.472 52.1448 210.208 51.8918 209.983 51.5643C209.758 51.2369 209.646 50.8103 209.646 50.2844C209.646 49.8082 209.758 49.3716 209.983 48.9747C210.208 48.5778 210.525 48.2653 210.936 48.0371C211.347 47.799 211.83 47.6799 212.388 47.6799C212.828 47.6799 213.287 47.7593 213.766 47.918C214.245 48.0768 214.651 48.3447 214.983 48.7217L214.543 50.4779C214.309 50.0413 213.991 49.694 213.59 49.4361C213.189 49.1781 212.774 49.0491 212.344 49.0491C211.943 49.0491 211.625 49.1632 211.391 49.3914C211.166 49.6196 211.053 49.8826 211.053 50.1802C211.053 50.4183 211.131 50.6317 211.288 50.8202C211.444 51.0087 211.679 51.1625 211.992 51.2816L213.179 51.7429C213.395 51.8223 213.658 51.9513 213.971 52.1299C214.294 52.3085 214.577 52.5665 214.822 52.9038C215.066 53.2411 215.188 53.6976 215.188 54.273C215.188 55.0767 214.91 55.7266 214.353 56.2227C213.805 56.7188 213.111 56.9668 212.27 56.9668Z" fill="white"/>
<path d="M189.994 56.7882V47.8585H191.461V49.1384C191.783 48.6522 192.189 48.2901 192.678 48.052C193.176 47.8039 193.699 47.6799 194.247 47.6799C194.843 47.6799 195.391 47.8238 195.889 48.1115C196.388 48.3893 196.789 48.7812 197.092 49.2872C197.434 48.7515 197.874 48.3496 198.411 48.0817C198.959 47.8138 199.536 47.6799 200.142 47.6799C200.806 47.6799 201.413 47.8386 201.96 48.1561C202.517 48.4736 202.957 48.9201 203.28 49.4956C203.612 50.0612 203.778 50.7309 203.778 51.5048V56.7882H202.195V51.6983C202.195 50.8847 201.965 50.2695 201.505 49.8528C201.056 49.4262 200.533 49.2128 199.936 49.2128C199.565 49.2128 199.203 49.2972 198.851 49.4658C198.509 49.6345 198.226 49.8974 198.001 50.2546C197.786 50.6118 197.678 51.0782 197.678 51.6536V56.7882H196.094V51.6983C196.094 51.1327 195.982 50.6664 195.757 50.2993C195.542 49.9322 195.259 49.6593 194.907 49.4807C194.565 49.2922 194.208 49.198 193.836 49.198C193.475 49.198 193.118 49.2823 192.766 49.451C192.424 49.6196 192.14 49.8826 191.915 50.2398C191.69 50.5969 191.578 51.0682 191.578 51.6536V56.7882H189.994Z" fill="white"/>
<path d="M180.185 56.9668C179.266 56.9668 178.44 56.7585 177.707 56.3417C176.983 55.925 176.411 55.3595 175.991 54.6451C175.58 53.9208 175.375 53.1171 175.375 52.2341C175.375 51.3907 175.575 50.6267 175.976 49.9421C176.377 49.2476 176.915 48.6969 177.589 48.2901C178.274 47.8833 179.026 47.6799 179.848 47.6799C180.659 47.6799 181.402 47.8783 182.076 48.2752C182.751 48.6622 183.289 49.188 183.689 49.8528C184.09 50.5176 184.291 51.2716 184.291 52.115V52.7698H178.542C178.288 52.7698 178.029 52.7599 177.765 52.7401C177.501 52.7202 177.242 52.6905 176.988 52.6508C177.096 53.4445 177.448 54.1093 178.044 54.6451C178.65 55.1809 179.368 55.4488 180.199 55.4488C180.757 55.4488 181.275 55.3198 181.754 55.0618C182.233 54.8038 182.619 54.4615 182.912 54.0349L183.352 55.8655C182.932 56.2128 182.448 56.4856 181.9 56.6841C181.363 56.8726 180.791 56.9668 180.185 56.9668ZM176.944 51.5643C177.472 51.475 178.005 51.4304 178.542 51.4304H181.461C181.676 51.4304 181.886 51.4403 182.091 51.4602C182.306 51.4701 182.521 51.485 182.736 51.5048C182.599 50.8103 182.257 50.2398 181.71 49.7933C181.162 49.3369 180.542 49.1087 179.848 49.1087C179.134 49.1087 178.508 49.3517 177.971 49.8379C177.433 50.3142 177.091 50.8896 176.944 51.5643Z" fill="white"/>
<path d="M167.261 56.7884V49.1981H165.267V47.8586H167.305V44.8821H168.801V47.8586H170.986V49.1981H168.845V56.7884H167.261Z" fill="white"/>
<path d="M157.433 56.9668C156.983 56.9668 156.499 56.8825 155.981 56.7138C155.473 56.5352 155.033 56.2425 154.661 55.8357L155.101 54.0795C155.375 54.5459 155.727 54.9179 156.157 55.1958C156.587 55.4637 157.047 55.5976 157.535 55.5976C158.005 55.5976 158.357 55.4835 158.591 55.2553C158.826 55.0172 158.943 54.7294 158.943 54.3921C158.943 54.0051 158.816 53.7224 158.562 53.5438C158.318 53.3652 158.098 53.2411 157.902 53.1717L156.714 52.7103C156.499 52.621 156.24 52.492 155.937 52.3234C155.634 52.1448 155.37 51.8918 155.145 51.5643C154.92 51.2369 154.808 50.8103 154.808 50.2844C154.808 49.8082 154.92 49.3716 155.145 48.9747C155.37 48.5778 155.688 48.2653 156.098 48.0371C156.509 47.799 156.993 47.6799 157.55 47.6799C157.99 47.6799 158.45 47.7593 158.929 47.918C159.408 48.0768 159.813 48.3447 160.146 48.7217L159.706 50.4779C159.471 50.0413 159.153 49.694 158.753 49.4361C158.352 49.1781 157.936 49.0491 157.506 49.0491C157.105 49.0491 156.788 49.1632 156.553 49.3914C156.328 49.6196 156.216 49.8826 156.216 50.1802C156.216 50.4183 156.294 50.6317 156.45 50.8202C156.607 51.0087 156.841 51.1625 157.154 51.2816L158.342 51.7429C158.557 51.8223 158.821 51.9513 159.134 52.1299C159.456 52.3085 159.74 52.5665 159.984 52.9038C160.229 53.2411 160.351 53.6976 160.351 54.273C160.351 55.0767 160.072 55.7266 159.515 56.2227C158.968 56.7188 158.274 56.9668 157.433 56.9668Z" fill="white"/>
<path d="M141.419 64.2445L144.409 57.0732L140.515 47.6101H142.385L144.348 52.4156C144.521 52.8469 144.69 53.272 144.854 53.6909C145.017 54.1098 145.181 54.615 145.344 55.2065C145.518 54.615 145.682 54.1098 145.835 53.6909C145.998 53.2596 146.172 52.8345 146.356 52.4156L148.349 47.6101H150.113L143.213 64.2445H141.419Z" fill="white"/>
<path d="M133.242 56.9668C132.792 56.9668 132.308 56.8825 131.79 56.7138C131.282 56.5352 130.842 56.2425 130.47 55.8357L130.91 54.0795C131.184 54.5459 131.536 54.9179 131.966 55.1958C132.396 55.4637 132.856 55.5976 133.344 55.5976C133.814 55.5976 134.166 55.4835 134.4 55.2553C134.635 55.0172 134.752 54.7294 134.752 54.3921C134.752 54.0051 134.625 53.7224 134.371 53.5438C134.126 53.3652 133.906 53.2411 133.711 53.1717L132.523 52.7103C132.308 52.621 132.049 52.492 131.746 52.3234C131.443 52.1448 131.179 51.8918 130.954 51.5643C130.729 51.2369 130.617 50.8103 130.617 50.2844C130.617 49.8082 130.729 49.3716 130.954 48.9747C131.179 48.5778 131.497 48.2653 131.907 48.0371C132.318 47.799 132.802 47.6799 133.359 47.6799C133.799 47.6799 134.258 47.7593 134.737 47.918C135.216 48.0768 135.622 48.3447 135.954 48.7217L135.515 50.4779C135.28 50.0413 134.962 49.694 134.561 49.4361C134.161 49.1781 133.745 49.0491 133.315 49.0491C132.914 49.0491 132.596 49.1632 132.362 49.3914C132.137 49.6196 132.025 49.8826 132.025 50.1802C132.025 50.4183 132.103 50.6317 132.259 50.8202C132.416 51.0087 132.65 51.1625 132.963 51.2816L134.151 51.7429C134.366 51.8223 134.63 51.9513 134.943 52.1299C135.265 52.3085 135.549 52.5665 135.793 52.9038C136.038 53.2411 136.16 53.6976 136.16 54.273C136.16 55.0767 135.881 55.7266 135.324 56.2227C134.777 56.7188 134.082 56.9668 133.242 56.9668Z" fill="white"/>
<path d="M108.839 56.7882V47.8585H110.305V49.3021C110.628 48.7763 111.043 48.3744 111.552 48.0966C112.07 47.8188 112.627 47.6799 113.223 47.6799C113.849 47.6799 114.426 47.8386 114.954 48.1561C115.491 48.4637 115.926 48.9152 116.259 49.5105C116.591 50.0959 116.757 50.8103 116.757 51.6536V56.7882H115.174V51.8769C115.174 51.1724 114.964 50.5523 114.543 50.0165C114.133 49.4708 113.551 49.198 112.798 49.198C112.182 49.198 111.63 49.4262 111.141 49.8826C110.662 50.3291 110.423 50.9789 110.423 51.8322V56.7882H108.839Z" fill="white"/>
<path d="M98.4204 56.9668C97.5699 56.9668 96.7927 56.7585 96.0888 56.3417C95.385 55.925 94.8229 55.3644 94.4025 54.66C93.9919 53.9555 93.7866 53.1766 93.7866 52.3234C93.7866 51.4602 93.9919 50.6813 94.4025 49.9867C94.8229 49.2823 95.385 48.7217 96.0888 48.305C96.7927 47.8883 97.5699 47.6799 98.4204 47.6799C99.2806 47.6799 100.058 47.8883 100.752 48.305C101.456 48.7217 102.013 49.2823 102.424 49.9867C102.844 50.6813 103.054 51.4602 103.054 52.3234C103.054 53.1766 102.844 53.9555 102.424 54.66C102.013 55.3644 101.456 55.925 100.752 56.3417C100.058 56.7585 99.2806 56.9668 98.4204 56.9668ZM98.4204 55.4488C98.9874 55.4488 99.5006 55.3099 99.9601 55.0321C100.42 54.7443 100.786 54.3673 101.06 53.9009C101.334 53.4247 101.47 52.8988 101.47 52.3234C101.47 51.7479 101.334 51.227 101.06 50.7607C100.786 50.2844 100.42 49.9074 99.9601 49.6296C99.5006 49.3418 98.9874 49.198 98.4204 49.198C97.8534 49.198 97.3401 49.3418 96.8807 49.6296C96.4212 49.9074 96.0546 50.2844 95.7809 50.7607C95.5072 51.227 95.3703 51.7479 95.3703 52.3234C95.3703 52.8988 95.5072 53.4247 95.7809 53.9009C96.0546 54.3673 96.4212 54.7443 96.8807 55.0321C97.3401 55.3099 97.8534 55.4488 98.4204 55.4488Z" fill="white"/>
<path d="M86.4209 56.7884V47.8586H88.0045V56.7884H86.4209ZM87.2127 46.2513C86.9194 46.2513 86.6701 46.1471 86.4648 45.9388C86.2595 45.7304 86.1569 45.4774 86.1569 45.1797C86.1569 44.8721 86.2595 44.6191 86.4648 44.4207C86.6701 44.2123 86.9194 44.1082 87.2127 44.1082C87.5157 44.1082 87.765 44.2123 87.9605 44.4207C88.1658 44.6191 88.2685 44.8721 88.2685 45.1797C88.2685 45.4774 88.1658 45.7304 87.9605 45.9388C87.765 46.1471 87.5157 46.2513 87.2127 46.2513Z" fill="white"/>
<path d="M77.2591 56.7884V49.1981H75.2649V47.8586H77.3031V44.8821H78.7988V47.8586H80.9837V49.1981H78.8428V56.7884H77.2591Z" fill="white"/>
<path d="M68.2506 56.7884V47.8586H69.8343V56.7884H68.2506ZM69.0424 46.2513C68.7491 46.2513 68.4999 46.1471 68.2946 45.9388C68.0893 45.7304 67.9866 45.4774 67.9866 45.1797C67.9866 44.8721 68.0893 44.6191 68.2946 44.4207C68.4999 44.2123 68.7491 44.1082 69.0424 44.1082C69.3455 44.1082 69.5947 44.2123 69.7903 44.4207C69.9956 44.6191 70.0982 44.8721 70.0982 45.1797C70.0982 45.4774 69.9956 45.7304 69.7903 45.9388C69.5947 46.1471 69.3455 46.2513 69.0424 46.2513Z" fill="white"/>
<path d="M58.0623 56.7884V47.8586H59.5287V49.4957C59.8415 48.9699 60.257 48.5532 60.7751 48.2456C61.2933 47.9281 61.9091 47.7693 62.6228 47.7693L63.0187 49.3767C62.833 49.3171 62.6179 49.2874 62.3735 49.2874C61.5523 49.2874 60.8924 49.5553 60.3939 50.0911C59.8953 50.6169 59.646 51.371 59.646 52.3533V56.7884H58.0623Z" fill="white"/>
<path d="M48.9002 56.7884V49.1981H46.906V47.8586H48.9442V44.8821H50.4399V47.8586H52.6248V49.1981H50.4839V56.7884H48.9002Z" fill="white"/>
<path d="M37.0844 56.9668C36.4685 56.9668 35.8917 56.8131 35.3541 56.5055C34.8164 56.188 34.3814 55.7316 34.049 55.1362C33.7166 54.5409 33.5504 53.8266 33.5504 52.9931V47.8585H35.1341V52.7699C35.1341 53.4743 35.3394 54.0994 35.75 54.6451C36.1704 55.1809 36.7569 55.4488 37.5096 55.4488C38.1255 55.4488 38.673 55.2255 39.152 54.7791C39.6408 54.3226 39.8852 53.6678 39.8852 52.8145V47.8585H41.4689V56.7883H40.0025V55.3446C39.6799 55.8705 39.2595 56.2723 38.7414 56.5501C38.2331 56.8279 37.6807 56.9668 37.0844 56.9668Z" fill="white"/>
<path d="M19.5786 56.7882V47.8585H21.045V49.3021C21.3676 48.7763 21.7831 48.3744 22.2914 48.0966C22.8095 47.8188 23.3667 47.6799 23.9631 47.6799C24.5887 47.6799 25.1655 47.8386 25.6934 48.1561C26.2311 48.4637 26.6661 48.9152 26.9985 49.5105C27.3308 50.0959 27.497 50.8103 27.497 51.6536V56.7882H25.9134V51.8769C25.9134 51.1724 25.7032 50.5523 25.2828 50.0165C24.8722 49.4708 24.2906 49.198 23.5378 49.198C22.9219 49.198 22.3696 49.4262 21.8808 49.8826C21.4018 50.3291 21.1623 50.9789 21.1623 51.8322V56.7882H19.5786Z" fill="white"/>
<defs>
<linearGradient id="paint0_linear_2149_428" x1="249.708" y1="7.67101" x2="250.187" y2="64.2444" gradientUnits="userSpaceOnUse">
<stop stop-color="white"/>
<stop offset="1" stop-color="#98A1B0"/>
</linearGradient>
<linearGradient id="paint1_linear_2149_428" x1="249.708" y1="7.67101" x2="250.187" y2="64.2444" gradientUnits="userSpaceOnUse">
<stop stop-color="white"/>
<stop offset="1" stop-color="#98A1B0"/>
</linearGradient>
</defs>
</svg>
